<svg version="1.1" xmlns="http://www.w3.org/2000/svg" xmlns:xlink="http://www.w3.org/1999/xlink" width="1182" height="480"><g fill="none" fill-rule="nonzero" stroke="none" stroke-width="1" stroke-linecap="butt" stroke-linejoin="miter" stroke-miterlimit="10" stroke-dasharray="" stroke-dashoffset="0" font-family="none" font-weight="none" font-size="none" text-anchor="none" style="mix-blend-mode: normal"><path d="M431.82393,389.17607c0,-5.52285 4.47715,-10 10,-10c5.52285,0 10,4.47715 10,10c0,5.52285 -4.47715,10 -10,10c-5.52285,0 -10,-4.47715 -10,-10z" fill="#098137"/><path d="M406.82393,389.17607c0,-5.52285 4.47715,-10 10,-10c5.52285,0 10,4.47715 10,10c0,5.52285 -4.47715,10 -10,10c-5.52285,0 -10,-4.47715 -10,-10z" fill="#098137"/><path d="M381.82393,389.17607c0,-5.52285 4.47715,-10 10,-10c5.52285,0 10,4.47715 10,10c0,5.52285 -4.47715,10 -10,10c-5.52285,0 -10,-4.47715 -10,-10z" fill="#098137"/><path d="M356.82393,389.17607c0,-5.52285 4.47715,-10 10,-10c5.52285,0 10,4.47715 10,10c0,5.52285 -4.47715,10 -10,10c-5.52285,0 -10,-4.47715 -10,-10z" fill="#098137"/><path d="M331.82393,389.17607c0,-5.52285 4.47715,-10 10,-10c5.52285,0 10,4.47715 10,10c0,5.52285 -4.47715,10 -10,10c-5.52285,0 -10,-4.47715 -10,-10z" fill="#098137"/><path d="M333.07193,363.77238c0.54133,-5.49625 5.43577,-9.51301 10.93202,-8.97168c5.49625,0.54133 9.51301,5.43577 8.97168,10.93202c-0.54133,5.49625 -5.43577,9.51301 -10.93202,8.97168c-5.49625,-0.54133 -9.51301,-5.43577 -8.97168,-10.93202z" fill="#098137"/><path d="M358.19668,363.85719c0.59712,-5.49047 5.5321,-9.45731 11.02257,-8.86019c5.49047,0.59712 9.45731,5.5321 8.86019,11.02257c-0.59712,5.49047 -5.5321,9.45731 -11.02257,8.86019c-5.49047,-0.59712 -9.45731,-5.5321 -8.86019,-11.02257z" fill="#098137"/><path d="M383.34905,363.96268c0.66571,-5.48258 5.64988,-9.38743 11.13246,-8.72172c5.48258,0.66571 9.38743,5.64988 8.72172,11.13246c-0.66571,5.48258 -5.64988,9.38743 -11.13246,8.72172c-5.48258,-0.66571 -9.38743,-5.64988 -8.72172,-11.13246z" fill="#098137"/><path d="M408.69857,362.96509c0.78598,-5.46663 5.85473,-9.26105 11.32136,-8.47507c5.46663,0.78598 9.26105,5.85473 8.47507,11.32136c-0.78598,5.46663 -5.85473,9.26105 -11.32136,8.47507c-5.46663,-0.78598 -9.26105,-5.85473 -8.47507,-11.32136z" fill="#098137"/><path d="M433.99488,362.97655c0.90903,-5.44752 6.06204,-9.1267 11.50956,-8.21767c5.44752,0.90903 9.1267,6.06204 8.21767,11.50956c-0.90903,5.44752 -6.06204,9.1267 -11.50956,8.21767c-5.44752,-0.90903 -9.1267,-6.06204 -8.21767,-11.50956z" fill="#098137"/><path d="M336.80392,338.61333c1.07745,-5.41673 6.34203,-8.9344 11.75876,-7.85695c5.41673,1.07745 8.9344,6.34203 7.85695,11.75876c-1.07745,5.41673 -6.34203,8.9344 -11.75876,7.85695c-5.41673,-1.07745 -8.9344,-6.34203 -7.85695,-11.75876z" fill="#00529f"/><path d="M362.29883,338.83514c1.18725,-5.39373 6.52218,-8.80375 11.91591,-7.6165c5.39373,1.18725 8.80375,6.52218 7.6165,11.91591c-1.18725,5.39373 -6.52218,8.80375 -11.91591,7.6165c-5.39373,-1.18725 -8.80375,-6.52218 -7.6165,-11.91591z" fill="#00529f"/><path d="M387.9022,339.11696c1.3217,-5.36236 6.74021,-8.63797 12.10257,-7.31626c5.36236,1.3217 8.63797,6.74021 7.31626,12.10257c-1.3217,5.36236 -6.74021,8.63797 -12.10257,7.31626c-5.36236,-1.3217 -8.63797,-6.74021 -7.31626,-12.10257z" fill="#00529f"/><path d="M414.28435,337.28768c1.55597,-5.29913 7.11312,-8.33357 12.41226,-6.7776c5.29913,1.55597 8.33357,7.11312 6.7776,12.41226c-1.55597,5.29913 -7.11312,8.33357 -12.41226,6.7776c-5.29913,-1.55597 -8.33357,-7.11312 -6.7776,-12.41226z" fill="#00529f"/><path d="M342.98396,313.94123c1.6032,-5.28504 7.18721,-8.26975 12.47225,-6.66656c5.28504,1.6032 8.26975,7.18721 6.66656,12.47225c-1.6032,5.28504 -7.18721,8.26975 -12.47225,6.66656c-5.28504,-1.6032 -8.26975,-7.18721 -6.66656,-12.47225z" fill="#00529f"/><path d="M369.0823,314.4033c1.76345,-5.23374 7.4358,-8.04697 12.66955,-6.28352c5.23374,1.76345 8.04697,7.4358 6.28352,12.66955c-1.76345,5.23374 -7.4358,8.04697 -12.66955,6.28352c-5.23374,-1.76345 -8.04697,-7.4358 -6.28352,-12.66955z" fill="#00529f"/><path d="M440.44852,337.49169c1.79327,-5.2236 7.48156,-8.00444 12.70517,-6.21118c5.2236,1.79327 8.00444,7.48156 6.21118,12.70517c-1.79327,5.2236 -7.48156,8.00444 -12.70517,6.21118c-5.2236,-1.79327 -8.00444,-7.48156 -6.21118,-12.70517z" fill="#00529f"/><path d="M395.41697,315.00122c1.95843,-5.16395 7.73226,-7.76254 12.89621,-5.80411c5.16395,1.95843 7.76254,7.73226 5.80411,12.89621c-1.95843,5.16395 -7.73226,7.76254 -12.89621,5.80411c-5.16395,-1.95843 -7.76254,-7.73226 -5.80411,-12.89621z" fill="#00529f"/><path d="M351.55253,289.99368c2.1135,-5.10245 7.96318,-7.52546 13.06563,-5.41196c5.10245,2.1135 7.52546,7.96318 5.41196,13.06563c-2.1135,5.10245 -7.96318,7.52546 -13.06563,5.41196c-5.10245,-2.1135 -7.52546,-7.96318 -5.41196,-13.06563z" fill="#00529f"/><path d="M423.46755,312.66657c2.29427,-5.02376 8.22671,-7.23644 13.25047,-4.94217c5.02376,2.29427 7.23644,8.22671 4.94217,13.25047c-2.29427,5.02376 -8.22671,7.23644 -13.25047,4.94217c-5.02376,-2.29427 -7.23644,-8.22671 -4.94217,-13.25047z" fill="#00529f"/><path d="M378.46755,290.84809c2.31898,-5.0124 8.26224,-7.19585 13.27465,-4.87686c5.0124,2.31898 7.19585,8.26224 4.87686,13.27465c-2.31898,5.0124 -8.26224,7.19585 -13.27465,4.87686c-5.0124,-2.31898 -7.19585,-8.26224 -4.87686,-13.27465z" fill="#00529f"/><path d="M405.78378,291.96711c2.5666,-4.89024 8.61155,-6.77392 13.50179,-4.20733c4.89024,2.5666 6.77392,8.61155 4.20733,13.50179c-2.5666,4.89024 -8.61155,6.77392 -13.50179,4.20733c-4.89024,-2.5666 -6.77392,-8.61155 -4.20733,-13.50179z" fill="#00529f"/><path d="M362.42711,267.00132c2.60345,-4.87072 8.66246,-6.7087 13.53318,-4.10525c4.87072,2.60345 6.7087,8.66246 4.10525,13.53318c-2.60345,4.87072 -8.66246,6.7087 -13.53318,4.10525c-4.87072,-2.60345 -6.7087,-8.66246 -4.10525,-13.53318z" fill="#00529f"/><path d="M451.00882,313.41664c2.62858,-4.8572 8.69701,-6.66385 13.55421,-4.03526c4.8572,2.62858 6.66385,8.69701 4.03526,13.55421c-2.62858,4.8572 -8.69701,6.66385 -13.55421,4.03526c-4.8572,-2.62858 -6.66385,-8.69701 -4.03526,-13.55421z" fill="#00529f"/><path d="M390.34455,268.4457c2.84733,-4.73229 8.99182,-6.26036 13.72411,-3.41303c4.73229,2.84733 6.26036,8.99182 3.41303,13.72411c-2.84733,4.73229 -8.99182,6.26036 -13.72411,3.41303c-4.73229,-2.84733 -6.26036,-8.99182 -3.41303,-13.72411z" fill="#00529f"/><path d="M436.06123,289.60297c2.98588,-4.64611 9.17283,-5.992 13.81894,-3.00613c4.64611,2.98588 5.992,9.17283 3.00613,13.81894c-2.98588,4.64611 -9.17283,5.992 -13.81894,3.00613c-4.64611,-2.98588 -5.992,-9.17283 -3.00613,-13.81894z" fill="#00529f"/><path d="M375.50297,245.18556c3.06833,-4.59208 9.27832,-5.82732 13.8704,-2.75899c4.59208,3.06833 5.82732,9.27832 2.75899,13.8704c-3.06833,4.59208 -9.27832,5.82732 -13.8704,2.75899c-4.59208,-3.06833 -5.82732,-9.27832 -2.75899,-13.8704z" fill="#00529f"/><path d="M418.85147,270.35052c3.13733,-4.54521 9.36527,-5.68653 13.91049,-2.54919c4.54521,3.13733 5.68653,9.36527 2.54919,13.91049c-3.13733,4.54521 -9.36527,5.68653 -13.91049,2.54919c-4.54521,-3.13733 -5.68653,-9.36527 -2.54919,-13.91049z" fill="#00529f"/><path d="M404.57405,247.45875c3.34228,-4.3967 9.61597,-5.25147 14.01267,-1.90919c4.3967,3.34228 5.25147,9.61597 1.90919,14.01267c-3.34228,4.3967 -9.61597,5.25147 -14.01267,1.90919c-4.3967,-3.34228 -5.25147,-9.61597 -1.90919,-14.01267z" fill="#00529f"/><path d="M465.38771,291.40811c3.3922,-4.3583 9.67523,-5.14148 14.03353,-1.74928c4.3583,3.3922 5.14148,9.67523 1.74928,14.03353c-3.3922,4.3583 -9.67523,5.14148 -14.03353,1.74928c-4.3583,-3.3922 -5.14148,-9.67523 -1.74928,-14.03353z" fill="#00529f"/><path d="M390.65419,224.75651c3.50366,-4.26922 9.80482,-4.88983 14.07404,-1.38617c4.26922,3.50366 4.88983,9.80482 1.38617,14.07404c-3.50366,4.26922 -9.80482,4.88983 -14.07404,1.38617c-4.26922,-3.50366 -4.88983,-9.80482 -1.38617,-14.07404z" fill="#00529f"/><path d="M451.80901,268.5664c3.6167,-4.17389 9.93221,-4.62558 14.1061,-1.00889c4.17389,3.6167 4.62558,9.93221 1.00889,14.1061c-3.6167,4.17389 -9.93221,4.62558 -14.1061,1.00889c-4.17389,-3.6167 -4.62558,-9.93221 -1.00889,-14.1061z" fill="#00529f"/><path d="M434.42946,250.46668c3.66233,-4.13391 9.98242,-4.51621 14.11633,-0.85388c4.13391,3.66233 4.51621,9.98242 0.85388,14.11633c-3.66233,4.13391 -9.98242,4.51621 -14.11633,0.85388c-4.13391,-3.66233 -4.51621,-9.98242 -0.85388,-14.11633z" fill="#00529f"/><path d="M420.98923,228.13331c3.79806,-4.00956 10.12739,-4.18102 14.13695,-0.38296c4.00956,3.79806 4.18102,10.12739 0.38296,14.13695c-3.79806,4.00956 -10.12739,4.18102 -14.13695,0.38296c-4.00956,-3.79806 -4.18102,-10.12739 -0.38296,-14.13695z" fill="#00529f"/><path d="M407.73484,205.91091c3.90524,-3.90524 10.23689,-3.90524 14.14214,0c3.90524,3.90524 3.90524,10.23689 0,14.14214c-3.90524,3.90524 -10.23689,3.90524 -14.14214,0c-3.90524,-3.90524 -3.90524,-10.23689 0,-14.14214z" fill="#00529f"/><path d="M483.19298,272.06643c4.06329,-3.74052 10.38953,-3.47887 14.13005,0.58442c3.74052,4.06329 3.47887,10.38953 -0.58442,14.13005c-4.06329,3.74052 -10.38953,3.47887 -14.13005,-0.58442c-3.74052,-4.06329 -3.47887,-10.38953 0.58442,-14.13005z" fill="#00529f"/><path d="M452.29061,232.60553c4.13391,-3.66233 10.45401,-3.28003 14.11633,0.85388c3.66233,4.13391 3.28003,10.45401 -0.85388,14.11633c-4.13391,3.66233 -10.45401,3.28003 -14.11633,-0.85388c-3.66233,-4.13391 -3.28003,-10.45401 0.85388,-14.11633z" fill="#00529f"/><path d="M470.39032,249.98508c4.17389,-3.6167 10.48941,-3.165 14.1061,1.00889c3.6167,4.17389 3.165,10.48941 -1.00889,14.1061c-4.17389,3.6167 -10.48941,3.165 -14.1061,-1.00889c-3.6167,-4.17389 -3.165,-10.48941 1.00889,-14.1061z" fill="#00529f"/><path d="M439.39762,210.69596c4.2093,-3.57542 10.52007,-3.06155 14.09548,1.14776c3.57542,4.2093 3.06155,10.52007 -1.14776,14.09548c-4.2093,3.57542 -10.52007,3.06155 -14.09548,-1.14776c-3.57542,-4.2093 -3.06155,-10.52007 1.14776,-14.09548z" fill="#00529f"/><path d="M426.58044,188.83026c4.26922,-3.50366 10.57038,-2.88305 14.07404,1.38617c3.50366,4.26922 2.88305,10.57038 -1.38617,14.07404c-4.26922,3.50366 -10.57038,2.88305 -14.07404,-1.38617c-3.50366,-4.26922 -2.88305,-10.57038 1.38617,-14.07404z" fill="#00529f"/><path d="M472.17445,217.02754c4.54521,-3.13733 10.77315,-1.99602 13.91049,2.54919c3.13733,4.54521 1.99602,10.77315 -2.54919,13.91049c-4.54521,3.13733 -10.77315,1.99602 -13.91049,-2.54919c-3.13733,-4.54521 -1.99602,-10.77315 2.54919,-13.91049z" fill="#00529f"/><path d="M459.58342,195.35111c4.5712,-3.09935 10.78941,-1.90618 13.88876,2.66502c3.09935,4.5712 1.90618,10.78941 -2.66502,13.88876c-4.5712,3.09935 -10.78941,1.90618 -13.88876,-2.66502c-3.09935,-4.5712 -1.90618,-10.78941 2.66502,-13.88876z" fill="#00529f"/><path d="M447.00949,173.67904c4.59208,-3.06833 10.80207,-1.83309 13.8704,2.75899c3.06833,4.59208 1.83309,10.80207 -2.75899,13.8704c-4.59208,3.06833 -10.80207,1.83309 -13.8704,-2.75899c-3.06833,-4.59208 -1.83309,-10.80207 2.75899,-13.8704z" fill="#00529f"/><path d="M503.93894,255.9192c4.62354,-3.02071 10.82044,-1.72136 13.84115,2.90218c3.02071,4.62354 1.72136,10.82044 -2.90218,13.84115c-4.62354,3.02071 -10.82044,1.72136 -13.84115,-2.90218c-3.02071,-4.62354 -1.72136,-10.82044 2.90218,-13.84115z" fill="#00529f"/><path d="M491.4269,234.2373c4.64611,-2.98588 10.83307,-1.63999 13.81894,3.00613c2.98588,4.64611 1.63999,10.83307 -3.00613,13.81894c-4.64611,2.98588 -10.83307,1.63999 -13.81894,-3.00613c-2.98588,-4.64611 -1.63999,-10.83307 3.00613,-13.81894z" fill="#00529f"/><path d="M468.82524,160.60318c4.87072,-2.60345 10.92973,-0.76547 13.53318,4.10525c2.60345,4.87072 0.76547,10.92973 -4.10525,13.53318c-4.87072,2.60345 -10.92973,0.76547 -13.53318,-4.10525c-2.60345,-4.87072 -0.76547,-10.92973 4.10525,-13.53318z" fill="#00529f"/><path d="M481.30995,182.27869c4.8795,-2.58695 10.93226,-0.72847 13.5192,4.15104c2.58695,4.8795 0.72847,10.93226 -4.15104,13.5192c-4.8795,2.58695 -10.93226,0.72847 -13.5192,-4.15104c-2.58695,-4.8795 -0.72847,-10.93226 4.15104,-13.5192z" fill="#00529f"/><path d="M493.79103,203.95986c4.89024,-2.5666 10.9352,-0.68291 13.50179,4.20733c2.5666,4.89024 0.68291,10.9352 -4.20733,13.50179c-4.89024,2.5666 -10.9352,0.68291 -13.50179,-4.20733c-2.5666,-4.89024 -0.68291,-10.9352 4.20733,-13.50179z" fill="#00529f"/><path d="M514.49049,221.64362c5.02376,-2.29427 10.9562,-0.08159 13.25047,4.94217c2.29427,5.02376 0.08159,10.9562 -4.94217,13.25047c-5.02376,2.29427 -10.9562,0.08159 -13.25047,-4.94217c-2.29427,-5.02376 -0.08159,-10.9562 4.94217,-13.25047z" fill="#00529f"/><path d="M527.0597,243.40687c5.05768,-2.2185 10.95618,0.0831 13.17469,5.14078c2.2185,5.05768 -0.0831,10.95618 -5.14078,13.17469c-5.05768,2.2185 -10.95618,-0.0831 -13.17469,-5.14078c-2.2185,-5.05768 0.0831,-10.95618 5.14078,-13.17469z" fill="#00529f"/><path d="M491.81761,149.7286c5.10245,-2.1135 10.95213,0.30952 13.06563,5.41196c2.1135,5.10245 -0.30952,10.95213 -5.41196,13.06563c-5.10245,2.1135 -10.95213,-0.30952 -13.06563,-5.41196c-2.1135,-5.10245 0.30952,-10.95213 5.41196,-13.06563z" fill="#00529f"/><path d="M504.3225,171.63195c5.1306,-2.04422 10.94693,0.45779 12.99115,5.58839c2.04422,5.1306 -0.45779,10.94693 -5.58839,12.99115c-5.1306,2.04422 -10.94693,-0.45779 -12.99115,-5.58839c-2.04422,-5.1306 0.45779,-10.94693 5.58839,-12.99115z" fill="#00529f"/><path d="M516.82514,193.59305c5.16395,-1.95843 10.93778,0.64016 12.89621,5.80411c1.95843,5.16395 -0.64016,10.93778 -5.80411,12.89621c-5.16395,1.95843 -10.93778,-0.64016 -12.89621,-5.80411c-1.95843,-5.16395 0.64016,-10.93778 5.80411,-12.89621z" fill="#00529f"/><path d="M515.76516,141.16003c5.28504,-1.6032 10.86905,1.38152 12.47225,6.66656c1.6032,5.28504 -1.38152,10.86905 -6.66656,12.47225c-5.28504,1.6032 -10.86905,-1.38152 -12.47225,-6.66656c-1.6032,-5.28504 1.38152,-10.86905 6.66656,-12.47225z" fill="#00529f"/><path d="M539.1116,212.46043c5.29913,-1.55597 10.85629,1.47847 12.41226,6.7776c1.55597,5.29913 -1.47847,10.85629 -6.7776,12.41226c-5.29913,1.55597 -10.85629,-1.47847 -12.41226,-6.7776c-1.55597,-5.29913 1.47847,-10.85629 6.7776,-12.41226z" fill="#00529f"/><path d="M528.35126,163.53572c5.32154,-1.47752 10.83327,1.63868 12.31078,6.96022c1.47752,5.32154 -1.63868,10.83327 -6.96022,12.31078c-5.32154,1.47752 -10.83327,-1.63868 -12.31078,-6.96022c-1.47752,-5.32154 1.63868,-10.83327 6.96022,-12.31078z" fill="#00529f"/><path d="M551.92458,234.87075c5.35385,-1.35578 10.79308,1.8853 12.14886,7.23915c1.35578,5.35385 -1.8853,10.79308 -7.23915,12.14886c-5.35385,1.35578 -10.79308,-1.8853 -12.14886,-7.23915c-1.35578,-5.35385 1.8853,-10.79308 7.23915,-12.14886z" fill="#00529f"/><path d="M540.94089,186.07828c5.36236,-1.3217 10.78087,1.9539 12.10257,7.31626c1.3217,5.36236 -1.9539,10.78087 -7.31626,12.10257c-5.36236,1.3217 -10.78087,-1.9539 -12.10257,-7.31626c-1.3217,-5.36236 1.9539,-10.78087 7.31626,-12.10257z" fill="#00529f"/><path d="M540.43726,134.98c5.41673,-1.07745 10.6813,2.44022 11.75876,7.85695c1.07745,5.41673 -2.44022,10.6813 -7.85695,11.75876c-5.41673,1.07745 -10.6813,-2.44022 -11.75876,-7.85695c-1.07745,-5.41673 2.44022,-10.6813 7.85695,-11.75876z" fill="#00529f"/><path d="M553.11453,158.08491c5.45009,-0.8935 10.59259,2.80035 11.48609,8.25045c0.8935,5.45009 -2.80035,10.59259 -8.25045,11.48609c-5.45009,0.8935 -10.59259,-2.80035 -11.48609,-8.25045c-0.8935,-5.45009 2.80035,-10.59259 8.25045,-11.48609z" fill="#00529f"/><path d="M564.78901,206.87465c5.46663,-0.78598 10.53538,3.00843 11.32136,8.47507c0.78598,5.46663 -3.00843,10.53538 -8.47507,11.32136c-5.46663,0.78598 -10.53538,-3.00843 -11.32136,-8.47507c-0.78598,-5.46663 3.00843,-10.53538 8.47507,-11.32136z" fill="#00529f"/><path d="M565.78661,181.52513c5.48258,-0.66571 10.46675,3.23914 11.13246,8.72172c0.66571,5.48258 -3.23914,10.46675 -8.72172,11.13246c-5.48258,0.66571 -10.46675,-3.23914 -11.13246,-8.72172c-0.66571,-5.48258 3.23914,-10.46675 8.72172,-11.13246z" fill="#00529f"/><path d="M565.5963,131.248c5.49625,-0.54133 10.39068,3.47542 10.93202,8.97168c0.54133,5.49625 -3.47542,10.39068 -8.97168,10.93202c-5.49625,0.54133 -10.39068,-3.47542 -10.93202,-8.97168c-0.54133,-5.49625 3.47542,-10.39068 8.97168,-10.93202z" fill="#00529f"/><path d="M577.85534,230.54367c5.50398,-0.45607 10.33557,3.63607 10.79164,9.14005c0.45607,5.50398 -3.63607,10.33557 -9.14005,10.79164c-5.50398,0.45607 -10.33557,-3.63607 -10.79164,-9.14005c-0.45607,-5.50398 3.63607,-10.33557 9.14005,-10.79164z" fill="#00529f"/><path d="M578.32196,155.34344c5.51475,-0.299 10.22772,3.9292 10.52672,9.44395c0.299,5.51475 -3.9292,10.22772 -9.44395,10.52672c-5.51475,0.299 -10.22772,-3.9292 -10.52672,-9.44395c-0.299,-5.51475 3.9292,-10.22772 9.44395,-10.52672z" fill="#00529f"/><path d="M591,205c5.52285,0 10,4.47715 10,10c0,5.52285 -4.47715,10 -10,10c-5.52285,0 -10,-4.47715 -10,-10c0,-5.52285 4.47715,-10 10,-10z" fill="#00529f"/><path d="M591,180c5.52285,0 10,4.47715 10,10c0,5.52285 -4.47715,10 -10,10c-5.52285,0 -10,-4.47715 -10,-10c0,-5.52285 4.47715,-10 10,-10z" fill="#00529f"/><path d="M591,130c5.52285,0 10,4.47715 10,10c0,5.52285 -4.47715,10 -10,10c-5.52285,0 -10,-4.47715 -10,-10c0,-5.52285 4.47715,-10 10,-10z" fill="#00529f"/><path d="M603.67804,155.34344c5.51475,0.299 9.74295,5.01198 9.44395,10.52672c-0.299,5.51475 -5.01198,9.74295 -10.52672,9.44395c-5.51475,-0.299 -9.74295,-5.01198 -9.44395,-10.52672c0.299,-5.51475 5.01198,-9.74295 10.52672,-9.44395z" fill="#00529f"/><path d="M604.14466,230.54367c5.50398,0.45607 9.59612,5.28765 9.14005,10.79164c-0.45607,5.50398 -5.28765,9.59612 -10.79164,9.14005c-5.50398,-0.45607 -9.59612,-5.28765 -9.14005,-10.79164c0.45607,-5.50398 5.28765,-9.59612 10.79164,-9.14005z" fill="#00529f"/><path d="M616.4037,131.248c5.49625,0.54133 9.51301,5.43577 8.97168,10.93202c-0.54133,5.49625 -5.43577,9.51301 -10.93202,8.97168c-5.49625,-0.54133 -9.51301,-5.43577 -8.97168,-10.93202c0.54133,-5.49625 5.43577,-9.51301 10.93202,-8.97168z" fill="#00529f"/><path d="M616.21339,181.52513c5.48258,0.66571 9.38743,5.64988 8.72172,11.13246c-0.66571,5.48258 -5.64988,9.38743 -11.13246,8.72172c-5.48258,-0.66571 -9.38743,-5.64988 -8.72172,-11.13246c0.66571,-5.48258 5.64988,-9.38743 11.13246,-8.72172z" fill="#00529f"/><path d="M617.21099,206.87465c5.46663,0.78598 9.26105,5.85473 8.47507,11.32136c-0.78598,5.46663 -5.85473,9.26105 -11.32136,8.47507c-5.46663,-0.78598 -9.26105,-5.85473 -8.47507,-11.32136c0.78598,-5.46663 5.85473,-9.26105 11.32136,-8.47507z" fill="#00529f"/><path d="M628.88547,158.08491c5.45009,0.8935 9.14394,6.03599 8.25045,11.48609c-0.8935,5.45009 -6.03599,9.14394 -11.48609,8.25045c-5.45009,-0.8935 -9.14394,-6.03599 -8.25045,-11.48609c0.8935,-5.45009 6.03599,-9.14394 11.48609,-8.25045z" fill="#00529f"/><path d="M641.56274,134.98c5.41673,1.07745 8.9344,6.34203 7.85695,11.75876c-1.07745,5.41673 -6.34203,8.9344 -11.75876,7.85695c-5.41673,-1.07745 -8.9344,-6.34203 -7.85695,-11.75876c1.07745,-5.41673 6.34203,-8.9344 11.75876,-7.85695z" fill="#d82a20"/><path d="M641.05911,186.07828c5.36236,1.3217 8.63797,6.74021 7.31626,12.10257c-1.3217,5.36236 -6.74021,8.63797 -12.10257,7.31626c-5.36236,-1.3217 -8.63797,-6.74021 -7.31626,-12.10257c1.3217,-5.36236 6.74021,-8.63797 12.10257,-7.31626z" fill="#d82a20"/><path d="M630.07542,234.87075c5.35385,1.35578 8.59493,6.79501 7.23915,12.14886c-1.35578,5.35385 -6.79501,8.59493 -12.14886,7.23915c-5.35385,-1.35578 -8.59493,-6.79501 -7.23915,-12.14886c1.35578,-5.35385 6.79501,-8.59493 12.14886,-7.23915z" fill="#d82a20"/><path d="M653.64874,163.53572c5.32154,1.47752 8.43773,6.98924 6.96022,12.31078c-1.47752,5.32154 -6.98924,8.43773 -12.31078,6.96022c-5.32154,-1.47752 -8.43773,-6.98924 -6.96022,-12.31078c1.47752,-5.32154 6.98924,-8.43773 12.31078,-6.96022z" fill="#d82a20"/><path d="M642.8884,212.46043c5.29913,1.55597 8.33357,7.11312 6.7776,12.41226c-1.55597,5.29913 -7.11312,8.33357 -12.41226,6.7776c-5.29913,-1.55597 -8.33357,-7.11312 -6.7776,-12.41226c1.55597,-5.29913 7.11312,-8.33357 12.41226,-6.7776z" fill="#d82a20"/><path d="M666.23484,141.16003c5.28504,1.6032 8.26975,7.18721 6.66656,12.47225c-1.6032,5.28504 -7.18721,8.26975 -12.47225,6.66656c-5.28504,-1.6032 -8.26975,-7.18721 -6.66656,-12.47225c1.6032,-5.28504 7.18721,-8.26975 12.47225,-6.66656z" fill="#d82a20"/><path d="M665.17486,193.59305c5.16395,1.95843 7.76254,7.73226 5.80411,12.89621c-1.95843,5.16395 -7.73226,7.76254 -12.89621,5.80411c-5.16395,-1.95843 -7.76254,-7.73226 -5.80411,-12.89621c1.95843,-5.16395 7.73226,-7.76254 12.89621,-5.80411z" fill="#d82a20"/><path d="M677.6775,171.63195c5.1306,2.04422 7.6326,7.86055 5.58839,12.99115c-2.04422,5.1306 -7.86055,7.6326 -12.99115,5.58839c-5.1306,-2.04422 -7.6326,-7.86055 -5.58839,-12.99115c2.04422,-5.1306 7.86055,-7.6326 12.99115,-5.58839z" fill="#d82a20"/><path d="M690.18239,149.7286c5.10245,2.1135 7.52546,7.96318 5.41196,13.06563c-2.1135,5.10245 -7.96318,7.52546 -13.06563,5.41196c-5.10245,-2.1135 -7.52546,-7.96318 -5.41196,-13.06563c2.1135,-5.10245 7.96318,-7.52546 13.06563,-5.41196z" fill="#d82a20"/><path d="M654.9403,243.40687c5.05768,2.2185 7.35928,8.11701 5.14078,13.17469c-2.2185,5.05768 -8.11701,7.35928 -13.17469,5.14078c-5.05768,-2.2185 -7.35928,-8.11701 -5.14078,-13.17469c2.2185,-5.05768 8.11701,-7.35928 13.17469,-5.14078z" fill="#d82a20"/><path d="M667.50951,221.64362c5.02376,2.29427 7.23644,8.22671 4.94217,13.25047c-2.29427,5.02376 -8.22671,7.23644 -13.25047,4.94217c-5.02376,-2.29427 -7.23644,-8.22671 -4.94217,-13.25047c2.29427,-5.02376 8.22671,-7.23644 13.25047,-4.94217z" fill="#d82a20"/><path d="M688.20897,203.95986c4.89024,2.5666 6.77392,8.61155 4.20733,13.50179c-2.5666,4.89024 -8.61155,6.77392 -13.50179,4.20733c-4.89024,-2.5666 -6.77392,-8.61155 -4.20733,-13.50179c2.5666,-4.89024 8.61155,-6.77392 13.50179,-4.20733z" fill="#d82a20"/><path d="M700.69005,182.27869c4.8795,2.58695 6.73798,8.6397 4.15104,13.5192c-2.58695,4.8795 -8.6397,6.73798 -13.5192,4.15104c-4.8795,-2.58695 -6.73798,-8.6397 -4.15104,-13.5192c2.58695,-4.8795 8.6397,-6.73798 13.5192,-4.15104z" fill="#d82a20"/><path d="M713.17476,160.60318c4.87072,2.60345 6.7087,8.66246 4.10525,13.53318c-2.60345,4.87072 -8.66246,6.7087 -13.53318,4.10525c-4.87072,-2.60345 -6.7087,-8.66246 -4.10525,-13.53318c2.60345,-4.87072 8.66246,-6.7087 13.53318,-4.10525z" fill="#d82a20"/><path d="M690.5731,234.2373c4.64611,2.98588 5.992,9.17283 3.00613,13.81894c-2.98588,4.64611 -9.17283,5.992 -13.81894,3.00613c-4.64611,-2.98588 -5.992,-9.17283 -3.00613,-13.81894c2.98588,-4.64611 9.17283,-5.992 13.81894,-3.00613z" fill="#d82a20"/><path d="M678.06106,255.9192c4.62354,3.02071 5.92289,9.2176 2.90218,13.84115c-3.02071,4.62354 -9.2176,5.92289 -13.84115,2.90218c-4.62354,-3.02071 -5.92289,-9.2176 -2.90218,-13.84115c3.02071,-4.62354 9.2176,-5.92289 13.84115,-2.90218z" fill="#d82a20"/><path d="M734.99051,173.67904c4.59208,3.06833 5.82732,9.27832 2.75899,13.8704c-3.06833,4.59208 -9.27832,5.82732 -13.8704,2.75899c-4.59208,-3.06833 -5.82732,-9.27832 -2.75899,-13.8704c3.06833,-4.59208 9.27832,-5.82732 13.8704,-2.75899z" fill="#d82a20"/><path d="M722.41658,195.35111c4.5712,3.09935 5.76437,9.31756 2.66502,13.88876c-3.09935,4.5712 -9.31756,5.76437 -13.88876,2.66502c-4.5712,-3.09935 -5.76437,-9.31756 -2.66502,-13.88876c3.09935,-4.5712 9.31756,-5.76437 13.88876,-2.66502z" fill="#d82a20"/><path d="M709.82555,217.02754c4.54521,3.13733 5.68653,9.36527 2.54919,13.91049c-3.13733,4.54521 -9.36527,5.68653 -13.91049,2.54919c-4.54521,-3.13733 -5.68653,-9.36527 -2.54919,-13.91049c3.13733,-4.54521 9.36527,-5.68653 13.91049,-2.54919z" fill="#d82a20"/><path d="M755.41956,188.83026c4.26922,3.50366 4.88983,9.80482 1.38617,14.07404c-3.50366,4.26922 -9.80482,4.88983 -14.07404,1.38617c-4.26922,-3.50366 -4.88983,-9.80482 -1.38617,-14.07404c3.50366,-4.26922 9.80482,-4.88983 14.07404,-1.38617z" fill="#d82a20"/><path d="M742.60238,210.69596c4.2093,3.57542 4.72317,9.88618 1.14776,14.09548c-3.57542,4.2093 -9.88618,4.72317 -14.09548,1.14776c-4.2093,-3.57542 -4.72317,-9.88618 -1.14776,-14.09548c3.57542,-4.2093 9.88618,-4.72317 14.09548,-1.14776z" fill="#d82a20"/><path d="M711.60968,249.98508c4.17389,3.6167 4.62558,9.93221 1.00889,14.1061c-3.6167,4.17389 -9.93221,4.62558 -14.1061,1.00889c-4.17389,-3.6167 -4.62558,-9.93221 -1.00889,-14.1061c3.6167,-4.17389 9.93221,-4.62558 14.1061,-1.00889z" fill="#d82a20"/><path d="M729.70939,232.60553c4.13391,3.66233 4.51621,9.98242 0.85388,14.11633c-3.66233,4.13391 -9.98242,4.51621 -14.11633,0.85388c-4.13391,-3.66233 -4.51621,-9.98242 -0.85388,-14.11633c3.66233,-4.13391 9.98242,-4.51621 14.11633,-0.85388z" fill="#d82a20"/><path d="M698.80702,272.06643c4.06329,3.74052 4.32495,10.06676 0.58442,14.13005c-3.74052,4.06329 -10.06676,4.32495 -14.13005,0.58442c-4.06329,-3.74052 -4.32495,-10.06676 -0.58442,-14.13005c3.74052,-4.06329 10.06676,-4.32495 14.13005,-0.58442z" fill="#d82a20"/><path d="M774.26516,205.91091c3.90524,3.90524 3.90524,10.23689 0,14.14214c-3.90524,3.90524 -10.23689,3.90524 -14.14214,0c-3.90524,-3.90524 -3.90524,-10.23689 0,-14.14214c3.90524,-3.90524 10.23689,-3.90524 14.14214,0z" fill="#d82a20"/><path d="M761.01077,228.13331c3.79806,4.00956 3.6266,10.33889 -0.38296,14.13695c-4.00956,3.79806 -10.33889,3.6266 -14.13695,-0.38296c-3.79806,-4.00956 -3.6266,-10.33889 0.38296,-14.13695c4.00956,-3.79806 10.33889,-3.6266 14.13695,0.38296z" fill="#d82a20"/><path d="M747.57054,250.46668c3.66233,4.13391 3.28003,10.45401 -0.85388,14.11633c-4.13391,3.66233 -10.45401,3.28003 -14.11633,-0.85388c-3.66233,-4.13391 -3.28003,-10.45401 0.85388,-14.11633c4.13391,-3.66233 10.45401,-3.28003 14.11633,0.85388z" fill="#d82a20"/><path d="M730.19099,268.5664c3.6167,4.17389 3.165,10.48941 -1.00889,14.1061c-4.17389,3.6167 -10.48941,3.165 -14.1061,-1.00889c-3.6167,-4.17389 -3.165,-10.48941 1.00889,-14.1061c4.17389,-3.6167 10.48941,-3.165 14.1061,1.00889z" fill="#d82a20"/><path d="M791.34581,224.75651c3.50366,4.26922 2.88305,10.57038 -1.38617,14.07404c-4.26922,3.50366 -10.57038,2.88305 -14.07404,-1.38617c-3.50366,-4.26922 -2.88305,-10.57038 1.38617,-14.07404c4.26922,-3.50366 10.57038,-2.88305 14.07404,1.38617z" fill="#d82a20"/><path d="M716.61229,291.40811c3.3922,4.3583 2.60902,10.64133 -1.74928,14.03353c-4.3583,3.3922 -10.64133,2.60902 -14.03353,-1.74928c-3.3922,-4.3583 -2.60902,-10.64133 1.74928,-14.03353c4.3583,-3.3922 10.64133,-2.60902 14.03353,1.74928z" fill="#d82a20"/><path d="M777.42595,247.45875c3.34228,4.3967 2.48751,10.67039 -1.90919,14.01267c-4.3967,3.34228 -10.67039,2.48751 -14.01267,-1.90919c-3.34228,-4.3967 -2.48751,-10.67039 1.90919,-14.01267c4.3967,-3.34228 10.67039,-2.48751 14.01267,1.90919z" fill="#d82a20"/><path d="M763.14853,270.35052c3.13733,4.54521 1.99602,10.77315 -2.54919,13.91049c-4.54521,3.13733 -10.77315,1.99602 -13.91049,-2.54919c-3.13733,-4.54521 -1.99602,-10.77315 2.54919,-13.91049c4.54521,-3.13733 10.77315,-1.99602 13.91049,2.54919z" fill="#d82a20"/><path d="M806.49703,245.18556c3.06833,4.59208 1.83309,10.80207 -2.75899,13.8704c-4.59208,3.06833 -10.80207,1.83309 -13.8704,-2.75899c-3.06833,-4.59208 -1.83309,-10.80207 2.75899,-13.8704c4.59208,-3.06833 10.80207,-1.83309 13.8704,2.75899z" fill="#d82a20"/><path d="M745.93877,289.60297c2.98588,4.64611 1.63999,10.83307 -3.00613,13.81894c-4.64611,2.98588 -10.83307,1.63999 -13.81894,-3.00613c-2.98588,-4.64611 -1.63999,-10.83307 3.00613,-13.81894c4.64611,-2.98588 10.83307,-1.63999 13.81894,3.00613z" fill="#d82a20"/><path d="M791.65545,268.4457c2.84733,4.73229 1.31926,10.87679 -3.41303,13.72411c-4.73229,2.84733 -10.87679,1.31926 -13.72411,-3.41303c-2.84733,-4.73229 -1.31926,-10.87679 3.41303,-13.72411c4.73229,-2.84733 10.87679,-1.31926 13.72411,3.41303z" fill="#d82a20"/><path d="M730.99118,313.41664c2.62858,4.8572 0.82194,10.92563 -4.03526,13.55421c-4.8572,2.62858 -10.92563,0.82194 -13.55421,-4.03526c-2.62858,-4.8572 -0.82194,-10.92563 4.03526,-13.55421c4.8572,-2.62858 10.92563,-0.82194 13.55421,4.03526z" fill="#d82a20"/><path d="M819.57289,267.00132c2.60345,4.87072 0.76547,10.92973 -4.10525,13.53318c-4.87072,2.60345 -10.92973,0.76547 -13.53318,-4.10525c-2.60345,-4.87072 -0.76547,-10.92973 4.10525,-13.53318c4.87072,-2.60345 10.92973,-0.76547 13.53318,4.10525z" fill="#d82a20"/><path d="M776.21622,291.96711c2.5666,4.89024 0.68291,10.9352 -4.20733,13.50179c-4.89024,2.5666 -10.9352,0.68291 -13.50179,-4.20733c-2.5666,-4.89024 -0.68291,-10.9352 4.20733,-13.50179c4.89024,-2.5666 10.9352,-0.68291 13.50179,4.20733z" fill="#d82a20"/><path d="M803.53245,290.84809c2.31898,5.0124 0.13554,10.95566 -4.87686,13.27465c-5.0124,2.31898 -10.95566,0.13554 -13.27465,-4.87686c-2.31898,-5.0124 -0.13554,-10.95566 4.87686,-13.27465c5.0124,-2.31898 10.95566,-0.13554 13.27465,4.87686z" fill="#d82a20"/><path d="M758.53245,312.66657c2.29427,5.02376 0.08159,10.9562 -4.94217,13.25047c-5.02376,2.29427 -10.9562,0.08159 -13.25047,-4.94217c-2.29427,-5.02376 -0.08159,-10.9562 4.94217,-13.25047c5.02376,-2.29427 10.9562,-0.08159 13.25047,4.94217z" fill="#d82a20"/><path d="M830.44747,289.99368c2.1135,5.10245 -0.30952,10.95213 -5.41196,13.06563c-5.10245,2.1135 -10.95213,-0.30952 -13.06563,-5.41196c-2.1135,-5.10245 0.30952,-10.95213 5.41196,-13.06563c5.10245,-2.1135 10.95213,0.30952 13.06563,5.41196z" fill="#d82a20"/><path d="M786.58303,315.00122c1.95843,5.16395 -0.64016,10.93778 -5.80411,12.89621c-5.16395,1.95843 -10.93778,-0.64016 -12.89621,-5.80411c-1.95843,-5.16395 0.64016,-10.93778 5.80411,-12.89621c5.16395,-1.95843 10.93778,0.64016 12.89621,5.80411z" fill="#d82a20"/><path d="M741.55148,337.49169c1.79327,5.2236 -0.98757,10.9119 -6.21118,12.70517c-5.2236,1.79327 -10.9119,-0.98757 -12.70517,-6.21118c-1.79327,-5.2236 0.98757,-10.9119 6.21118,-12.70517c5.2236,-1.79327 10.9119,0.98757 12.70517,6.21118z" fill="#d82a20"/><path d="M812.9177,314.4033c1.76345,5.23374 -1.04977,10.90609 -6.28352,12.66955c-5.23374,1.76345 -10.90609,-1.04977 -12.66955,-6.28352c-1.76345,-5.23374 1.04977,-10.90609 6.28352,-12.66955c5.23374,-1.76345 10.90609,1.04977 12.66955,6.28352z" fill="#d82a20"/><path d="M839.01604,313.94123c1.6032,5.28504 -1.38152,10.86905 -6.66656,12.47225c-5.28504,1.6032 -10.86905,-1.38152 -12.47225,-6.66656c-1.6032,-5.28504 1.38152,-10.86905 6.66656,-12.47225c5.28504,-1.6032 10.86905,1.38152 12.47225,6.66656z" fill="#d82a20"/><path d="M767.71565,337.28768c1.55597,5.29913 -1.47847,10.85629 -6.7776,12.41226c-5.29913,1.55597 -10.85629,-1.47847 -12.41226,-6.7776c-1.55597,-5.29913 1.47847,-10.85629 6.7776,-12.41226c5.29913,-1.55597 10.85629,1.47847 12.41226,6.7776z" fill="#d82a20"/><path d="M794.0978,339.11696c1.3217,5.36236 -1.9539,10.78087 -7.31626,12.10257c-5.36236,1.3217 -10.78087,-1.9539 -12.10257,-7.31626c-1.3217,-5.36236 1.9539,-10.78087 7.31626,-12.10257c5.36236,-1.3217 10.78087,1.9539 12.10257,7.31626z" fill="#d82a20"/><path d="M819.70117,338.83514c1.18725,5.39373 -2.22277,10.72866 -7.6165,11.91591c-5.39373,1.18725 -10.72866,-2.22277 -11.91591,-7.6165c-1.18725,-5.39373 2.22277,-10.72866 7.6165,-11.91591c5.39373,-1.18725 10.72866,2.22277 11.91591,7.6165z" fill="#d82a20"/><path d="M845.19608,338.61333c1.07745,5.41673 -2.44022,10.6813 -7.85695,11.75876c-5.41673,1.07745 -10.6813,-2.44022 -11.75876,-7.85695c-1.07745,-5.41673 2.44022,-10.6813 7.85695,-11.75876c5.41673,-1.07745 10.6813,2.44022 11.75876,7.85695z" fill="#d82a20"/><path d="M748.00512,362.97655c0.90903,5.44752 -2.77014,10.60053 -8.21767,11.50956c-5.44752,0.90903 -10.60053,-2.77014 -11.50956,-8.21767c-0.90903,-5.44752 2.77014,-10.60053 8.21767,-11.50956c5.44752,-0.90903 10.60053,2.77014 11.50956,8.21767z" fill="#d82a20"/><path d="M773.30143,362.96509c0.78598,5.46663 -3.00843,10.53538 -8.47507,11.32136c-5.46663,0.78598 -10.53538,-3.00843 -11.32136,-8.47507c-0.78598,-5.46663 3.00843,-10.53538 8.47507,-11.32136c5.46663,-0.78598 10.53538,3.00843 11.32136,8.47507z" fill="#d82a20"/><path d="M798.65095,363.96268c0.66571,5.48258 -3.23914,10.46675 -8.72172,11.13246c-5.48258,0.66571 -10.46675,-3.23914 -11.13246,-8.72172c-0.66571,-5.48258 3.23914,-10.46675 8.72172,-11.13246c5.48258,-0.66571 10.46675,3.23914 11.13246,8.72172z" fill="#d82a20"/><path d="M823.80332,363.85719c0.59712,5.49047 -3.36972,10.42544 -8.86019,11.02257c-5.49047,0.59712 -10.42544,-3.36972 -11.02257,-8.86019c-0.59712,-5.49047 3.36972,-10.42544 8.86019,-11.02257c5.49047,-0.59712 10.42544,3.36972 11.02257,8.86019z" fill="#d82a20"/><path d="M848.92807,363.77238c0.54133,5.49625 -3.47542,10.39068 -8.97168,10.93202c-5.49625,0.54133 -10.39068,-3.47542 -10.93202,-8.97168c-0.54133,-5.49625 3.47542,-10.39068 8.97168,-10.93202c5.49625,-0.54133 10.39068,3.47542 10.93202,8.97168z" fill="#d82a20"/><path d="M750.17607,389.17607c0,5.52285 -4.47715,10 -10,10c-5.52285,0 -10,-4.47715 -10,-10c0,-5.52285 4.47715,-10 10,-10c5.52285,0 10,4.47715 10,10z" fill="#fde401"/><path d="M775.17607,389.17607c0,5.52285 -4.47715,10 -10,10c-5.52285,0 -10,-4.47715 -10,-10c0,-5.52285 4.47715,-10 10,-10c5.52285,0 10,4.47715 10,10z" fill="#fde401"/><path d="M800.17607,389.17607c0,5.52285 -4.47715,10 -10,10c-5.52285,0 -10,-4.47715 -10,-10c0,-5.52285 4.47715,-10 10,-10c5.52285,0 10,4.47715 10,10z" fill="#fde401"/><path d="M825.17607,389.17607c0,5.52285 -4.47715,10 -10,10c-5.52285,0 -10,-4.47715 -10,-10c0,-5.52285 4.47715,-10 10,-10c5.52285,0 10,4.47715 10,10z" fill="#fde401"/><path d="M850.17607,389.17607c0,5.52285 -4.47715,10 -10,10c-5.52285,0 -10,-4.47715 -10,-10c0,-5.52285 4.47715,-10 10,-10c5.52285,0 10,4.47715 10,10z" fill="#fde401"/></g></svg>